<svg width="24" height="24" viewBox="0 0 16 16" fill="none" xmlns="http://www.w3.org/2000/svg">
<g clip-path="url(#clip0_30_7)">
<g clip-path="url(#clip1_30_7)">
<path d="M6.07836 2.0532L6.50003 1.98632V1.55938V1C6.50003 0.723017 6.72305 0.5 7.00003 0.5C7.27702 0.5 7.50003 0.723017 7.50003 1V1.55938V1.98632L7.9217 2.0532C9.94848 2.37469 11.5 4.13119 11.5 6.25V7.29375C11.5 8.82628 12.0232 10.3142 12.9778 11.5117L12.9786 11.5126L13.4442 12.0939L13.445 12.0949C13.5044 12.1686 13.5164 12.2712 13.4746 12.3579C13.4325 12.4453 13.3445 12.5 13.25 12.5H0.750034C0.655593 12.5 0.567551 12.4453 0.525456 12.3579C0.48367 12.2712 0.495694 12.1686 0.555036 12.0949L0.555041 12.0949L0.556704 12.0928L1.02183 11.5091C1.0219 11.509 1.02198 11.5089 1.02205 11.5088C1.97702 10.3141 2.50003 8.82604 2.50003 7.29375V6.25C2.50003 4.13119 4.05159 2.37469 6.07836 2.0532ZM11.7407 12H12.6581L12.1608 11.229C11.4063 10.0592 11 8.69378 11 7.29375V6.25C11 4.18011 9.31993 2.5 7.25003 2.5H7.00003H6.75003C4.68014 2.5 3.00003 4.18011 3.00003 6.25V7.29375C3.00003 8.69378 2.59376 10.0592 1.83923 11.229L1.34192 12H2.25941H11.7407ZM7.00003 14.5H8.41512C8.34152 14.71 8.22173 14.9024 8.0621 15.0621C7.78169 15.3425 7.39983 15.5 7.00003 15.5C6.60023 15.5 6.21838 15.3425 5.93796 15.0621C5.77834 14.9024 5.65854 14.71 5.58495 14.5H7.00003Z" fill="#9CA3AF" stroke="white"/>
</g>
</g>
<defs>
<clipPath id="clip0_30_7">
<rect width="16" height="16" fill="white"/>
</clipPath>
<clipPath id="clip1_30_7">
<path d="M0 0H14V16H0V0Z" fill="white"/>
</clipPath>
</defs>
</svg>
